Coordinates
version=1
nRows=54
nColumns=12
inDegrees=yes

Units are S.I. units (second, meters, Newtons, ...)
Angles are in degrees

endheader
time	SC_y	SC_z	SC_x	AC_y	AC_z	AC_x	GH_y	GH_z	GH_yy	EL_x	PS_y
       0.0              -34.89          21.45          25.91          51.63            3.7          6.506         -42.86          35.03          74.85          113.7          139.1
   0.01583              -34.89          21.45          25.92          51.63          3.696          6.504         -42.87          35.03          74.86          113.7          139.1
   0.03165              -34.89          21.45          25.93          51.63          3.693          6.501         -42.87          35.03          74.87          113.7          139.1
   0.04748              -34.89          21.44          25.94          51.63          3.689          6.499         -42.88          35.02          74.88          113.7          139.0
   0.06331              -34.89          21.44          25.95          51.64          3.685          6.496         -42.89          35.02          74.89          113.7          139.0
   0.07913              -34.89          21.44          25.95          51.64          3.681          6.493          -42.9          35.02           74.9          113.7          139.0
   0.09496               -34.9          21.44          25.96          51.64          3.676          6.489          -42.9          35.01          74.91          113.7          139.0
    0.1108               -34.9          21.44          25.98          51.64          3.671          6.486         -42.91          35.01          74.93          113.7          139.0
    0.1266               -34.9          21.44          25.99          51.64          3.666          6.482         -42.92           35.0          74.94          113.7          139.0
    0.1424               -34.9          21.44           26.0          51.64           3.66          6.478         -42.93           35.0          74.95          113.7          138.9
    0.1583               -34.9          21.44          26.01          51.65          3.654          6.473         -42.95          34.99          74.97          113.7          138.9
    0.1741               -34.9          21.43          26.03          51.65          3.648          6.469         -42.96          34.99          74.99          113.7          138.9
    0.1899              -34.91          21.43          26.04          51.65          3.641          6.464         -42.97          34.98           75.0          113.7          138.9
    0.2057              -34.91          21.43          26.06          51.65          3.633          6.458         -42.99          34.98          75.02          113.7          138.8
    0.2216              -34.91          21.43          26.08          51.66          3.625          6.452          -43.0          34.97          75.04          113.7          138.8
    0.2374              -34.91          21.43           26.1          51.66          3.616          6.446         -43.02          34.96          75.07          113.7          138.8
    0.2532              -34.92          21.42          26.12          51.66          3.607          6.439         -43.04          34.95          75.09          113.7          138.7
    0.2691              -34.92          21.42          26.14          51.67          3.596          6.431         -43.06          34.94          75.12          113.7          138.7
    0.2849              -34.92          21.42          26.17          51.67          3.585          6.423         -43.08          34.93          75.15          113.7          138.6
    0.3007              -34.93          21.42           26.2          51.67          3.572          6.414          -43.1          34.92          75.18          113.7          138.6
    0.3165              -34.93          21.41          26.23          51.68          3.558          6.404         -43.13          34.91          75.21          113.7          138.5
    0.3324              -34.94          21.41          26.26          51.68          3.543          6.393         -43.16           34.9          75.25          113.7          138.5
    0.3482              -34.94           21.4           26.3          51.69          3.526          6.381         -43.19          34.88          75.29          113.8          138.4
     0.364              -34.95           21.4          26.34           51.7          3.508          6.367         -43.23          34.87          75.34          113.8          138.3
    0.3798              -34.96           21.4          26.38           51.7          3.487          6.352         -43.27          34.85          75.39          113.8          138.2
    0.3957              -34.96          21.39          26.44          51.71          3.464          6.335         -43.31          34.83          75.45          113.8          138.1
    0.4115              -34.97          21.38          26.49          51.72          3.438          6.317         -43.36          34.81          75.52          113.8          138.0
    0.4273              -34.98          21.38          26.56          51.73          3.409          6.296         -43.41          34.78          75.59          113.8          137.9
    0.4431              -34.99          21.37          26.63          51.74          3.376          6.272         -43.48          34.76          75.67          113.8          137.8
     0.459               -35.0          21.36          26.71          51.75          3.339          6.245         -43.55          34.72          75.77          113.8          137.6
    0.4748              -35.02          21.35          26.81          51.77          3.297          6.214         -43.63          34.69          75.87          113.8          137.5
    0.4906              -35.03          21.34          26.92          51.79          3.248          6.178         -43.72          34.65           76.0          113.9          137.3
    0.5065              -35.05          21.32          27.04           51.8          3.192          6.137         -43.83           34.6          76.14          113.9          137.0
    0.5223              -35.07          21.31          27.19          51.83          3.126           6.09         -43.95          34.54          76.31          113.9          136.8
    0.5381               -35.1          21.29          27.36          51.85           3.05          6.034          -44.1          34.48           76.5          113.9          136.5
    0.5539              -35.13          21.27          27.56          51.88          2.959          5.969         -44.27           34.4          76.73          114.0          136.1
    0.5698              -35.16          21.24           27.8          51.92          2.852          5.891         -44.48          34.31           77.0          114.0          135.7
    0.5856               -35.2          21.21          28.08          51.97          2.723          5.798         -44.72           34.2          77.32          114.0          135.1
    0.6014              -35.25          21.17          28.43          52.02          2.568          5.685         -45.02          34.07          77.72          114.1          134.5
    0.6172              -35.31          21.12          28.85          52.08          2.378          5.547         -45.38          33.91           78.2          114.2          133.7
    0.6331              -35.39          21.07          29.37          52.16          2.143          5.376         -45.83          33.71          78.79          114.3          132.8
    0.6489              -35.48           21.0          30.02          52.26          1.851          5.164         -46.39          33.46          79.53          114.4          131.6
    0.6647               -35.6          20.91          30.84          52.39          1.482          4.896         -47.09          33.14          80.46          114.5          130.1
    0.6805              -35.75          20.79          31.88          52.55          1.014          4.556         -47.99          32.74          81.65          114.7          128.2
    0.6964              -35.94          20.65          33.21          52.76         0.4141          4.121         -49.13          32.23          83.17          114.9          125.8
    0.7122              -36.19          20.46          34.92          53.02        -0.3553          3.562          -50.6          31.58          85.11          115.2          122.6
     0.728              -36.51          20.22          37.11          53.35         -1.338          2.849         -52.48          30.74           87.6          115.5          118.7
    0.7439               -36.9          19.92          39.85          53.78         -2.574          1.952         -54.84          29.68          90.72          116.0          113.6
    0.7597              -37.39          19.55           43.2          54.29          -4.08         0.8582         -57.72           28.4          94.53          116.5          107.5
    0.7755              -37.95          19.13          47.08          54.89         -5.825        -0.4091         -61.05          26.91          98.95          117.1          100.5
    0.7913              -38.55          18.67          51.27          55.54         -7.716         -1.781         -64.66           25.3          103.7          117.8          92.79
    0.8072              -39.16          18.21          55.47          56.18         -9.606         -3.154         -68.27          23.69          108.5          118.5          85.12
     0.823              -39.72          17.78          59.35          56.78         -11.35         -4.421          -71.6           22.2          112.9          119.1          78.04
    0.8388               -40.2          17.41           62.7           57.3         -12.86         -5.514         -74.48          20.92          116.7          119.7          71.94
